<svg width="26" height="26" viewBox="0 0 26 26" fill="none" xmlns="http://www.w3.org/2000/svg">
    <circle cx="12.684" cy="13" r="12" fill="#333" stroke="#fff"/>
    <path fill-rule="evenodd" clip-rule="evenodd" d="M9.134 4.623c.886-.04 1.169-.05 3.425-.05 2.257 0 2.54.01 3.426.05.884.04 1.488.18 2.017.386a4.073 4.073 0 0 1 1.47.958c.423.415.75.917.958 1.472.206.528.346 1.132.387 2.016.04.886.05 1.17.05 3.426 0 2.256-.01 2.539-.05 3.425-.04.884-.18 1.488-.387 2.016a4.071 4.071 0 0 1-.958 1.472c-.415.423-.917.75-1.47.958-.53.206-1.133.346-2.018.387-.886.04-1.169.05-3.425.05s-2.539-.01-3.425-.05c-.885-.04-1.488-.181-2.017-.387a4.073 4.073 0 0 1-1.471-.958 4.071 4.071 0 0 1-.958-1.471c-.206-.529-.346-1.133-.387-2.017-.04-.886-.05-1.169-.05-3.425 0-2.257.01-2.54.05-3.426.04-.884.181-1.488.387-2.017a4.072 4.072 0 0 1 .958-1.47c.415-.423.917-.75 1.47-.959.53-.206 1.134-.346 2.018-.386zm6.783 1.495c-.876-.04-1.139-.048-3.357-.048s-2.481.008-3.357.048c-.81.037-1.25.172-1.543.286-.36.134-.687.346-.955.622a2.574 2.574 0 0 0-.621.955c-.114.293-.25.732-.287 1.543-.04.876-.048 1.139-.048 3.357s.008 2.48.048 3.357c.037.81.173 1.25.287 1.542.133.361.345.688.62.956.269.276.595.488.956.62.293.115.733.25 1.543.287.876.04 1.139.049 3.357.049s2.48-.009 3.357-.049c.81-.037 1.25-.172 1.542-.286.361-.133.688-.345.956-.621.276-.268.488-.595.621-.956.114-.293.25-.733.286-1.542.04-.876.049-1.14.049-3.357 0-2.219-.008-2.481-.049-3.357-.037-.81-.172-1.25-.286-1.543a2.574 2.574 0 0 0-.621-.955 2.574 2.574 0 0 0-.956-.622c-.292-.114-.732-.249-1.542-.286z" fill="#E9B720"/>
    <path fill-rule="evenodd" clip-rule="evenodd" d="M17.055 9.51a1.123 1.123 0 1 0 0-2.247 1.123 1.123 0 0 0 0 2.246zm-4.493-.9a4.268 4.268 0 1 0 0 8.536 4.268 4.268 0 0 0 0-8.535zm0 7.039a2.77 2.77 0 1 1 0-5.541 2.77 2.77 0 0 1 0 5.54z" fill="#E9B720"/>
</svg>
