<svg width="26" height="26" viewBox="0 0 26 26" fill="none" xmlns="http://www.w3.org/2000/svg">
    <path d="M12.684 25c6.627 0 12-5.373 12-12s-5.373-12-12-12-12 5.373-12 12 5.373 12 12 12z" fill="#333" stroke="#fff" stroke-miterlimit="10"/>
    <path d="M20.468 8.213c-.572.254-1.297.492-1.946.57.66-.391 1.708-1.207 1.946-1.945-.617.362-1.733.75-2.46.89-.582-.616-1.41-.89-2.329-.89-1.764 0-2.995 1.495-2.995 3.243v1.297c-2.594 0-5.124-1.976-6.698-3.891a3.122 3.122 0 0 0-.433 1.593c0 1.18 1.084 2.378 1.942 2.947-.523-.016-1.515-.416-1.946-.649v.037c0 1.536 1.077 2.578 2.538 2.869-.267.073-.592.338-1.843.338.406 1.255 2.448 1.918 3.846 1.946-1.094.847-3.044 1.297-4.541 1.297-.259 0-.399.014-.649-.015 1.413.895 3.386 1.312 5.19 1.312 5.874 0 9.08-4.487 9.08-8.672 0-.138-.004-.598-.011-.733.628-.443.882-.906 1.309-1.544z" fill="#E9B720"/>
</svg>
